<?xml version="1.0" standalone="no"?><!DOCTYPE svg PUBLIC "-//W3C//DTD SVG 1.1//EN" "http://www.w3.org/Graphics/SVG/1.1/DTD/svg11.dtd"><svg class="icon" width="200px" height="200.00px" viewBox="0 0 1024 1024" version="1.1" xmlns="http://www.w3.org/2000/svg"><path fill="#515151" d="M288 576H224v448h64c17.6 0 32-14.4 32-32V608c0-17.6-14.4-32-32-32zM736 576c-17.6 0-32 14.4-32 32v384c0 17.6 14.4 32 32 32h64V576h-64zM1024 512c0-282.784-229.216-512-512-512S0 229.216 0 512c0 61.408 10.816 120.288 30.656 174.848A224.096 224.096 0 0 0 192 1021.728V578.304a222.624 222.624 0 0 0-87.744 32.384A418.88 418.88 0 0 1 96 528c0-229.76 186.24-416 416-416s416 186.24 416 416c0 28.32-2.816 55.968-8.224 82.688A222.816 222.816 0 0 0 832 578.272v443.456a224.032 224.032 0 0 0 161.344-334.88c19.84-54.56 30.656-113.44 30.656-174.88z" /></svg>