<?xml version="1.0" standalone="no"?><!DOCTYPE svg PUBLIC "-//W3C//DTD SVG 1.1//EN" "http://www.w3.org/Graphics/SVG/1.1/DTD/svg11.dtd"><svg class="icon" width="200px" height="200.00px" viewBox="0 0 1024 1024" version="1.1" xmlns="http://www.w3.org/2000/svg"><path fill="#515151" d="M512 0C229.216 0 0 229.216 0 512s229.216 512 512 512 512-229.216 512-512S794.784 0 512 0z m192 256a64 64 0 1 1 0.032 127.968A64 64 0 0 1 704 256zM320 256a64 64 0 1 1 0.032 127.968A64 64 0 0 1 320 256z m223.808 423.36A95.776 95.776 0 0 1 512 608a95.68 95.68 0 0 1-31.808 71.36C393.664 757.856 192 677.504 192 576c62.016 40 110.464 9.792 156.128-35.872A96 96 0 0 1 512.032 608a96 96 0 0 1 163.904-67.872c45.664 45.664 94.112 75.872 156.128 35.872 0 101.536-201.664 181.888-288.192 103.36z" /></svg>