<?xml version="1.0" standalone="no"?><!DOCTYPE svg PUBLIC "-//W3C//DTD SVG 1.1//EN" "http://www.w3.org/Graphics/SVG/1.1/DTD/svg11.dtd"><svg class="icon" width="200px" height="200.00px" viewBox="0 0 1024 1024" version="1.1" xmlns="http://www.w3.org/2000/svg"><path fill="#515151" d="M512 1024c282.784 0 512-229.216 512-512S794.784 0 512 0 0 229.216 0 512s229.216 512 512 512z m0-928c229.76 0 416 186.24 416 416s-186.24 416-416 416S96 741.76 96 512 282.24 96 512 96z m-256 224a64 64 0 1 1 127.968-0.032A64 64 0 0 1 256 320z m384 0a64 64 0 1 1 127.968-0.032A64 64 0 0 1 640 320zM675.872 540.128a96 96 0 1 0-132.096 139.264c86.528 78.496 288.192-1.856 288.192-103.36-62.016 40-110.464 9.792-156.128-35.872zM348.128 540.128a96 96 0 1 1 132.096 139.264c-86.528 78.496-288.192-1.856-288.192-103.36 62.016 40 110.464 9.792 156.128-35.872z" /></svg>