<?xml version="1.0" standalone="no"?><!DOCTYPE svg PUBLIC "-//W3C//DTD SVG 1.1//EN" "http://www.w3.org/Graphics/SVG/1.1/DTD/svg11.dtd"><svg class="icon" width="200px" height="188.24px" viewBox="0 0 1088 1024" version="1.1" xmlns="http://www.w3.org/2000/svg"><path fill="#515151" d="M640 64c247.424 0 448 200.576 448 448s-200.576 448-448 448v-96c94.016 0 182.432-36.608 248.896-103.104S992 606.016 992 512c0-94.016-36.608-182.432-103.104-248.896S734.016 160 640 160a349.6 349.6 0 0 0-248.896 103.104A349.504 349.504 0 0 0 293.792 448H480l-224 256-224-256h164.576C227.648 230.912 414.304 64 640 64z m192 384v128h-256V256h128v192z" /></svg>