<?xml version="1.0" standalone="no"?><!DOCTYPE svg PUBLIC "-//W3C//DTD SVG 1.1//EN" "http://www.w3.org/Graphics/SVG/1.1/DTD/svg11.dtd"><svg class="icon" width="200px" height="200.00px" viewBox="0 0 1024 1024" version="1.1" xmlns="http://www.w3.org/2000/svg"><path fill="#515151" d="M719.52 831.52a48 48 0 0 1-33.952-81.92c131.008-131.008 131.008-344.16 0-475.168a48 48 0 1 1 67.872-67.872c81.6 81.6 126.528 190.08 126.528 305.472s-44.928 223.872-126.528 305.472a47.84 47.84 0 0 1-33.952 14.048z m-170.496-90.496a48 48 0 0 1-33.952-81.92 208.256 208.256 0 0 0 0-294.144 48 48 0 1 1 67.872-67.872c118.528 118.528 118.528 311.392 0 429.92a47.84 47.84 0 0 1-33.952 14.048zM416 960a32 32 0 0 1-22.624-9.376L146.752 704H32a32 32 0 0 1-32-32V352a32 32 0 0 1 32-32h114.752l246.624-246.624A32 32 0 0 1 448 96v832a32.064 32.064 0 0 1-32 32z" /></svg>