<?xml version="1.0" standalone="no"?><!DOCTYPE svg PUBLIC "-//W3C//DTD SVG 1.1//EN" "http://www.w3.org/Graphics/SVG/1.1/DTD/svg11.dtd"><svg class="icon" width="200px" height="200.00px" viewBox="0 0 1024 1024" version="1.1" xmlns="http://www.w3.org/2000/svg"><path fill="#515151" d="M1024 576h-192v192h-128v-192h-192v-128h192V256h128v192h192v128zM416 960a32 32 0 0 1-22.624-9.376L146.752 704H32a32 32 0 0 1-32-32V352a32 32 0 0 1 32-32h114.752l246.624-246.624A32 32 0 0 1 448 96v832a32.064 32.064 0 0 1-32 32z" /></svg>