<?xml version="1.0" standalone="no"?><!DOCTYPE svg PUBLIC "-//W3C//DTD SVG 1.1//EN" "http://www.w3.org/Graphics/SVG/1.1/DTD/svg11.dtd"><svg class="icon" width="200px" height="200.00px" viewBox="0 0 1024 1024" version="1.1" xmlns="http://www.w3.org/2000/svg"><path fill="#515151" d="M512.01056 92.768l429.088 855.232H82.89056L511.97856 92.768zM512.01056 0c-22.08 0-44.128 14.88-60.896 44.64L14.02656 915.744C-19.44544 975.264 9.03456 1024 77.32256 1024h869.312c68.288 0 96.8-48.704 63.296-108.256L572.84256 44.64C556.10656 14.88 534.02656 0 511.94656 0zM576.01056 832a64 64 0 1 1-127.968 0.032A64 64 0 0 1 576.01056 832zM512.01056 704a64 64 0 0 1-64-64v-192a64 64 0 1 1 128 0v192a64 64 0 0 1-64 64z" /></svg>